<svg version="1.1" xmlns="http://www.w3.org/2000/svg" style="display: block;" viewBox="0 0 2048 1916" width="1240" height="1160" preserveAspectRatio="none">
<defs>
	<linearGradient id="Gradient1" gradientUnits="userSpaceOnUse" x1="537.701" y1="1695.53" x2="750.046" y2="1045.6">
		<stop class="stop0" offset="0" stop-opacity="1" stop-color="rgb(255,127,4)"/>
		<stop class="stop1" offset="1" stop-opacity="1" stop-color="rgb(255,209,40)"/>
	</linearGradient>
	<linearGradient id="Gradient2" gradientUnits="userSpaceOnUse" x1="1032.64" y1="633.738" x2="998.919" y2="1151.98">
		<stop class="stop0" offset="0" stop-opacity="1" stop-color="rgb(0,47,94)"/>
		<stop class="stop1" offset="1" stop-opacity="1" stop-color="rgb(9,69,136)"/>
	</linearGradient>
</defs>
<path transform="translate(0,0)" fill="rgb(18,108,175)" d="M 565.019 658.356 C 556.921 655.573 535.788 645.462 526.347 641.502 C 489.273 626.048 452.334 610.271 415.535 594.173 L 329.383 557.655 C 310.04 549.515 291.195 541.875 272.391 532.31 C 246.82 519.303 243.546 496.542 270.757 482.926 C 289.728 473.434 309.642 465.415 329.312 457.294 L 392.128 430.661 L 600.851 342.344 L 876.026 226.359 L 966.475 187.715 C 1023.01 164.101 1019.61 159.866 1076.07 184.272 L 1127.83 206.212 L 1330.03 291.505 L 1618.15 413.361 L 1714.54 453.892 C 1737.14 463.37 1759.89 472.676 1781.98 483.143 C 1794.71 489.176 1808.71 499.487 1802.83 515.355 C 1800.56 521.813 1794.61 526.99 1788.69 530.236 C 1763.14 544.233 1735.26 555.35 1708.62 567.182 L 1543.05 640.757 C 1547.32 677.614 1547.37 712.72 1545.53 749.715 C 1545.03 759.789 1542.85 772.095 1542.74 781.121 C 1557.91 791.065 1568.09 792.488 1573.35 814.392 C 1576.12 825.97 1574.64 841.983 1568.01 851.769 C 1560.39 863.008 1551.09 860.168 1554.52 876.685 C 1558.56 896.07 1561.71 916.368 1565.47 935.834 C 1566.93 943.441 1569.66 960.369 1571.94 966.996 C 1573.9 987.458 1581.7 1024.24 1586.47 1045.51 C 1598.37 1098.55 1592.89 1116.65 1533.79 1121.05 C 1509.64 1122.85 1458.71 1120.38 1442.93 1096.48 C 1442.29 1070.7 1450.32 1044.5 1454.18 1019.02 C 1454.95 1013.97 1457.99 1000.93 1458.17 996.546 C 1459.72 984.325 1469.64 947.006 1469.07 938.89 C 1447.81 950.754 1422.81 962.519 1400.83 973.81 L 1243.78 1054.07 C 1198.34 1077.61 1152.76 1100.87 1107.04 1123.86 C 1088.04 1133.28 1068.84 1143.15 1049.53 1151.89 C 1041.8 1155.38 1035.19 1156.56 1026.7 1156.5 C 1019.61 1155.75 1012.84 1154.89 1006.31 1151.89 C 982.884 1141.14 959.246 1129.26 936.339 1117.51 L 841.847 1069.58 L 714.135 1004.97 C 689.013 992.385 662.624 979.651 637.925 966.565 C 622.381 957.371 606.67 948.963 594.285 935.699 C 558.643 897.531 563.697 860.582 563.909 812.213 C 563.83 785.994 564.1 759.776 564.719 733.565 C 565.864 711.081 564.439 682.274 565.019 658.356 z"/>
<path transform="translate(0,0)" fill="url(#Gradient2)" d="M 1465.38 658.453 C 1474.63 664.351 1480.84 672.744 1482.54 683.49 C 1487.62 715.64 1485.96 755.425 1485.98 788.057 C 1474.68 797.944 1467.61 806.637 1466.76 822.436 C 1465.76 840.847 1470.69 856.039 1486.06 867.02 C 1479.33 885.139 1476.74 903.026 1472.96 921.883 C 1471.99 926.726 1469.71 934.944 1469.07 938.89 C 1447.81 950.754 1422.81 962.519 1400.83 973.81 L 1243.78 1054.07 C 1198.34 1077.61 1152.76 1100.87 1107.04 1123.86 C 1088.04 1133.28 1068.84 1143.15 1049.53 1151.89 C 1041.8 1155.38 1035.19 1156.56 1026.7 1156.5 C 1019.61 1155.75 1012.84 1154.89 1006.31 1151.89 C 982.884 1141.14 959.246 1129.26 936.339 1117.51 L 841.847 1069.58 L 714.135 1004.97 C 689.013 992.385 662.624 979.651 637.925 966.565 C 622.381 957.371 606.67 948.963 594.285 935.699 C 558.643 897.531 563.697 860.582 563.909 812.213 C 563.83 785.994 564.1 759.776 564.719 733.565 C 565.864 711.081 564.439 682.274 565.019 658.356 C 575.936 661.291 601.141 672.472 612.161 677.23 L 689.252 710.811 L 927.683 815.072 C 955.191 827.163 982.004 839.676 1010.27 849.967 C 1041.15 861.209 1063.46 844.487 1090.99 832.016 C 1128.14 815.15 1165.17 798.013 1202.07 780.606 L 1393.55 692.721 C 1403.65 688.07 1460.83 662.856 1465.38 658.453 z"/>
<path transform="translate(0,0)" fill="rgb(18,108,175)" d="M 564.719 733.565 C 582.048 731.945 688.3 782.368 711.591 792.818 C 769.718 818.265 827.595 844.278 885.215 870.852 C 929.071 890.795 978.832 911.749 1021.14 935.905 C 1022.63 936.758 1025.75 941.229 1026.77 942.925 C 1029.6 993.982 1029.08 1046.04 1029.05 1097.2 C 1029.05 1107.01 1029.2 1148.6 1026.7 1156.5 C 1019.61 1155.75 1012.84 1154.89 1006.31 1151.89 C 982.884 1141.14 959.246 1129.26 936.339 1117.51 L 841.847 1069.58 L 714.135 1004.97 C 689.013 992.385 662.624 979.651 637.925 966.565 C 622.381 957.371 606.67 948.963 594.285 935.699 C 558.643 897.531 563.697 860.582 563.909 812.213 C 563.83 785.994 564.1 759.776 564.719 733.565 z"/>
<path transform="translate(0,0)" fill="rgb(254,189,22)" d="M 1465.38 658.453 C 1441.58 642.583 1385.92 623.926 1357.21 613.733 L 1246.87 574.216 L 1138.2 535.355 C 1093.36 519.133 1055.6 504.607 1008.06 496.714 C 950.397 487.14 989.559 437.165 1036.1 447.088 C 1081.12 456.687 1120.37 473.253 1163.32 489.094 L 1351.21 558.218 L 1457.18 597.418 C 1471.7 602.719 1486.41 607.97 1500.92 613.225 C 1519.74 620.038 1530.75 624.694 1543.05 640.757 C 1547.32 677.614 1547.37 712.72 1545.53 749.715 C 1545.03 759.789 1542.85 772.095 1542.74 781.121 C 1557.91 791.065 1568.09 792.488 1573.35 814.392 C 1576.12 825.97 1574.64 841.983 1568.01 851.769 C 1560.39 863.008 1551.09 860.168 1554.52 876.685 C 1558.56 896.07 1561.71 916.368 1565.47 935.834 C 1566.93 943.441 1569.66 960.369 1571.94 966.996 C 1573.9 987.458 1581.7 1024.24 1586.47 1045.51 C 1598.37 1098.55 1592.89 1116.65 1533.79 1121.05 C 1509.64 1122.85 1458.71 1120.38 1442.93 1096.48 C 1442.29 1070.7 1450.32 1044.5 1454.18 1019.02 C 1454.95 1013.97 1457.99 1000.93 1458.17 996.546 C 1459.72 984.325 1469.64 947.006 1469.07 938.89 C 1469.71 934.944 1471.99 926.726 1472.96 921.883 C 1476.74 903.026 1479.33 885.139 1486.06 867.02 C 1470.69 856.039 1465.76 840.847 1466.76 822.436 C 1467.61 806.637 1474.68 797.944 1485.98 788.057 C 1485.96 755.425 1487.62 715.64 1482.54 683.49 C 1480.84 672.744 1474.63 664.351 1465.38 658.453 z"/>
<path transform="translate(0,0)" fill="url(#Gradient1)" d="M 985.525 1665.94 C 977.219 1654.74 965.661 1644.82 955.89 1634.85 C 935.635 1614.18 916.371 1596.74 894.181 1578.25 C 865.597 1554.12 835.71 1531.58 804.654 1510.73 C 650.36 1408.87 472.92 1360.12 289.457 1351.27 C 273.549 1350.24 255.464 1352.12 239.803 1351.01 C 208.18 1348.78 148.127 1362.11 169.345 1308.61 C 179.462 1283.11 189.694 1258.75 200.386 1233.76 L 246.409 1124.65 L 294.354 1009.59 C 299.981 996.169 312.573 964.446 319.588 953.337 C 327.089 941.457 399.866 951.65 412.777 953.225 C 561.138 970.857 703.142 1023.67 826.974 1107.26 C 896.283 1153.42 1008.73 1247.16 1025.88 1332.55 C 1027.3 1447.58 1027.71 1562.62 1027.1 1677.66 C 1027.55 1683.84 1027.31 1689.53 1029.56 1695.15 C 1032.19 1694.7 1031.38 1694.87 1033.84 1693.62 C 1036.64 1693.95 1038.17 1695.04 1040.01 1697.33 C 1034.27 1702.59 1030.97 1705.47 1027.69 1712.84 L 1025.94 1713.83 L 1025.65 1714.82 C 1018.86 1715.2 1011.3 1713.07 1005.29 1710.02 C 981.439 1697.89 958.003 1684.54 934.205 1672.17 C 893.686 1650.98 852.047 1632 809.47 1615.33 C 625.201 1541.75 424.914 1517.57 228.428 1545.17 C 209.895 1547.79 143.223 1558.65 128.392 1565.08 C 126.454 1560.62 125.569 1555.82 124.547 1551.07 C 123.033 1544.04 121.753 1537.37 123.204 1530.21 C 125.581 1518.5 165.607 1419.57 172.588 1409.07 C 177.314 1401.96 184.033 1399.94 192.109 1398.51 C 217.733 1393.99 244.754 1394.19 270.694 1393.22 C 457.856 1387.2 642.76 1435.48 803.085 1532.24 C 832.5 1550.28 863.115 1570.06 891.11 1590.3 C 904.422 1599.74 917.138 1612.73 930.354 1621.97 C 949.789 1635.55 966.478 1652.4 985.525 1665.94 z"/>
<path transform="translate(0,0)" fill="rgb(255,118,28)" d="M 1027.1 1677.66 C 1027.55 1683.84 1027.31 1689.53 1029.56 1695.15 C 1032.19 1694.7 1031.38 1694.87 1033.84 1693.62 C 1036.64 1693.95 1038.17 1695.04 1040.01 1697.33 C 1034.27 1702.59 1030.97 1705.47 1027.69 1712.84 L 1025.94 1713.83 C 1028.23 1700.22 1026.35 1691.39 1027.1 1677.66 z"/>
<path transform="translate(0,0)" fill="rgb(248,85,48)" d="M 1571.94 966.996 C 1593.03 957.327 1701.84 947.502 1726.31 951.436 C 1728.69 953.699 1733.53 957.984 1734.77 960.813 C 1758.82 1015.85 1781.66 1071.68 1804.91 1127.04 L 1845.17 1223.08 C 1851.27 1237.47 1886.6 1317.97 1886.97 1329.2 C 1887.14 1333.97 1885.27 1338.58 1881.83 1341.87 C 1879.7 1343.89 1873.95 1347.58 1870.94 1347.67 C 1802.04 1349.77 1733.2 1350.91 1664.9 1361.51 C 1472.5 1389.67 1291.63 1470.48 1142.29 1595.01 C 1123.17 1611.12 1074.82 1653.95 1061.27 1673.4 C 1054.86 1680.13 1045.4 1689.99 1040.01 1697.33 C 1038.17 1695.04 1036.64 1693.95 1033.84 1693.62 C 1031.38 1694.87 1032.19 1694.7 1029.56 1695.15 C 1027.31 1689.53 1027.55 1683.84 1027.1 1677.66 C 1027.71 1562.62 1027.3 1447.58 1025.88 1332.55 C 1032.62 1325.24 1036.74 1304.67 1042.73 1294.34 C 1118.8 1163.16 1263.86 1079.02 1398.48 1018.73 C 1414.58 1011.51 1442.24 999.45 1458.17 996.546 C 1457.99 1000.93 1454.95 1013.97 1454.18 1019.02 C 1450.32 1044.5 1442.29 1070.7 1442.93 1096.48 C 1458.71 1120.38 1509.64 1122.85 1533.79 1121.05 C 1592.89 1116.65 1598.37 1098.55 1586.47 1045.51 C 1581.7 1024.24 1573.9 987.458 1571.94 966.996 z"/>
<path transform="translate(0,0)" fill="rgb(2,52,103)" d="M 1061.27 1673.4 C 1074.43 1664.32 1087.73 1650.55 1099.96 1640.55 C 1113.7 1629.3 1128.28 1617.3 1142.18 1606.41 C 1152.63 1598.58 1164.1 1591.81 1174.69 1584.21 C 1241.11 1536.48 1311.31 1496.78 1387.08 1465.58 C 1482.48 1426.39 1583.43 1402.4 1686.26 1394.48 C 1716.65 1392.39 1751.59 1393.29 1782.42 1393.61 C 1808.37 1393.89 1843.11 1394.3 1868.37 1400.58 C 1876.6 1402.95 1881.95 1409.37 1885.14 1416.87 C 1896.78 1444.25 1907.75 1472.75 1919.59 1499.97 C 1932.59 1529.85 1936.84 1534.27 1925.94 1565.57 C 1923.88 1583.47 1916.51 1620.39 1909.26 1636.64 C 1894.16 1645.96 1873.44 1637.93 1856.6 1634.52 C 1838.91 1631.01 1821.15 1627.85 1803.34 1625.03 C 1736.88 1615.46 1669.75 1611.38 1602.62 1612.83 C 1459.1 1615.8 1307.52 1651.63 1180.25 1718.8 C 1166.27 1726.07 1152.48 1733.7 1138.9 1741.69 C 1114.3 1756.16 1071.35 1783.29 1044.44 1788.84 C 1041.48 1789.45 1038.49 1789.9 1035.48 1790.17 C 992.711 1794.06 928.784 1749.28 889.992 1727.83 C 869.388 1716.56 848.303 1706.18 826.796 1696.74 C 783.704 1677.87 739.423 1661.83 694.239 1648.74 C 566.801 1611.51 410.192 1604.7 278.719 1621.11 C 254.388 1624.17 230.159 1628.01 206.068 1632.6 C 140.294 1645.06 143.109 1652.19 131.225 1579.73 C 130.483 1575.21 129.297 1569.69 128.392 1565.08 C 143.223 1558.65 209.895 1547.79 228.428 1545.17 C 424.914 1517.57 625.201 1541.75 809.47 1615.33 C 852.047 1632 893.686 1650.98 934.205 1672.17 C 958.003 1684.54 981.439 1697.89 1005.29 1710.02 C 1011.3 1713.07 1018.86 1715.2 1025.65 1714.82 L 1025.94 1713.83 L 1027.69 1712.84 C 1030.97 1705.47 1034.27 1702.59 1040.01 1697.33 C 1045.4 1689.99 1054.86 1680.13 1061.27 1673.4 z"/>
<path transform="translate(0,0)" fill="rgb(208,47,49)" d="M 1061.27 1673.4 C 1074.43 1664.32 1087.73 1650.55 1099.96 1640.55 C 1113.7 1629.3 1128.28 1617.3 1142.18 1606.41 C 1152.63 1598.58 1164.1 1591.81 1174.69 1584.21 C 1241.11 1536.48 1311.31 1496.78 1387.08 1465.58 C 1482.48 1426.39 1583.43 1402.4 1686.26 1394.48 C 1716.65 1392.39 1751.59 1393.29 1782.42 1393.61 C 1808.37 1393.89 1843.11 1394.3 1868.37 1400.58 C 1876.6 1402.95 1881.95 1409.37 1885.14 1416.87 C 1896.78 1444.25 1907.75 1472.75 1919.59 1499.97 C 1932.59 1529.85 1936.84 1534.27 1925.94 1565.57 C 1884.59 1552.82 1827.06 1544.81 1783.94 1540.47 C 1578.48 1519.21 1373.05 1554.69 1185.35 1640.61 C 1154.01 1654.96 1123.58 1670.84 1092.81 1686.32 C 1074.26 1695.66 1045.78 1713.4 1025.65 1714.82 L 1025.94 1713.83 L 1027.69 1712.84 C 1030.97 1705.47 1034.27 1702.59 1040.01 1697.33 C 1045.4 1689.99 1054.86 1680.13 1061.27 1673.4 z"/>
</svg>